<svg id="Ñëîé_1" data-name="Ñëîé 1" xmlns="http://www.w3.org/2000/svg" xmlns:xlink="http://www.w3.org/1999/xlink" viewBox="0 0 400.19 356.86"><defs><style>.cls-1{fill:none;}.cls-2,.cls-3{fill:#173d7a;}.cls-2{opacity:0.5;}.cls-4{fill:#396caa;}.cls-5{fill:#274f89;}.cls-6{fill:#d4ecff;}.cls-7{fill:#fff;}.cls-8{fill:#5793ce;}.cls-9{fill:#1dc77c;}.cls-10{opacity:0.3;}.cls-11{clip-path:url(#clip-path);}.cls-12{fill:#79b1e0;}.cls-13{fill:#309e69;}.cls-14{fill:#66f2b0;}.cls-15{clip-path:url(#clip-path-2);}</style><clipPath id="clip-path" transform="translate(-125.02 -53.76)"><path class="cls-1" d="M452.33,238.12l22.74-92.82L389.16,94.38l49.59-22.86,63.78,24.6s.39,112.4,0,113.53-23.62,38.84-23.62,38.84Z"/></clipPath><clipPath id="clip-path-2" transform="translate(-125.02 -53.76)"><path class="cls-1" d="M452.33,238.12l22.74-92.82L389.16,94.38l-104.75,39,80.39,104.9s66.36,37.82,66,39,48.13-28.69,48.13-28.69Z"/></clipPath></defs><path class="cls-2" d="M365.38,365.59,222.61,283.16c-4-2.33-3.53-6.4,1.13-9.1L321,218c4.66-2.7,11.72-3,15.75-.66l142.77,82.43c4,2.33,3.53,6.4-1.13,9.1l-97.21,56.1C376.47,367.63,369.42,367.92,365.38,365.59Z" transform="translate(-125.02 -53.76)"/><path class="cls-3" d="M519.48,140.45,370.93,54.68a6,6,0,0,0-5-.62h0l-.27.1-.06,0-5.37,2.06L365,58.59a2.5,2.5,0,0,0-.07.26L340.75,169c-1.21,5.52,1.21,11.95,5.42,14.38l145,83.7-.52,6.15,5.87-2.28c2-.92,3.55-3,4.2-6l24.2-110.15C526.11,149.31,523.68,142.87,519.48,140.45Z" transform="translate(-125.02 -53.76)"/><path class="cls-4" d="M519.48,140.45,370.93,54.68a6,6,0,0,0-5-.62h0l-.27.1-.06,0-5.37,2.06L365,58.59a2.5,2.5,0,0,0-.07.26L349,131.44l72.69,56.63,102.48-41.7A11.45,11.45,0,0,0,519.48,140.45Z" transform="translate(-125.02 -53.76)"/><path class="cls-5" d="M513.88,157.38l11.31-4.82c.21-4.38-1.61-8.9-4.58-11.32l-17.9,7.53Z" transform="translate(-125.02 -53.76)"/><path class="cls-6" d="M485.47,272.63,336.92,186.86c-4.21-2.42-6.63-8.86-5.42-14.37L355.7,62.35c1.21-5.52,5.6-8,9.8-5.59l148.55,85.77c4.21,2.42,6.63,8.86,5.42,14.37L495.27,267C494.06,272.56,489.67,275.06,485.47,272.63Z" transform="translate(-125.02 -53.76)"/><path class="cls-7" d="M515.48,142,366.92,56.24a5.84,5.84,0,0,0-5.84-.26,6.13,6.13,0,0,1,4.42.78l148.55,85.77c4.21,2.42,6.63,8.86,5.42,14.37L495.27,267a8.37,8.37,0,0,1-3.95,5.85c2.51-.55,4.6-2.83,5.38-6.37l24.2-110.14C522.11,150.87,519.68,144.43,515.48,142Z" transform="translate(-125.02 -53.76)"/><path class="cls-7" d="M482.25,264.44,342.54,183.82c-3.85-2.22-6.07-8.11-5-13.16L359.72,69.87c1.11-5,5.13-7.33,9-5.11l139.72,80.62c3.84,2.22,6.06,8.11,4.95,13.16L491.22,259.33C490.11,264.37,486.1,266.66,482.25,264.44Z" transform="translate(-125.02 -53.76)"/><path class="cls-3" d="M482.25,264.44,342.54,183.82c-3.85-2.22-6.07-8.11-5-13.16L359.72,69.87c1.11-5,5.13-7.33,9-5.11l139.72,80.62c3.84,2.22,6.06,8.11,4.95,13.16L491.22,259.33C490.11,264.37,486.1,266.66,482.25,264.44Z" transform="translate(-125.02 -53.76)"/><path class="cls-8" d="M483.47,263.94,343.75,183.32c-3.84-2.22-6.06-8.11-4.95-13.15L360.94,69.38a7.72,7.72,0,0,1,3.52-5.31c-2.21.57-4,2.65-4.74,5.8L337.58,170.66c-1.11,5.05,1.11,10.94,5,13.16l139.71,80.62a5.37,5.37,0,0,0,5.45.19A5.54,5.54,0,0,1,483.47,263.94Z" transform="translate(-125.02 -53.76)"/><path class="cls-3" d="M487.52,276.37l-20.3-2.68L336.13,198c-4.2-2.43-11.54-2.13-16.39.68l-92.89,53.6-12.28-1.62v7h0c-.08,1.61.83,3.16,2.82,4.3L366,347.71c4.2,2.43,11.54,2.12,16.4-.68l101.15-58.38c2.73-1.58,4.09-3.61,4-5.51h0Z" transform="translate(-125.02 -53.76)"/><path class="cls-4" d="M389,228.55l-9.31-5.38H277.33l-50.48,29.12-12.28-1.62v7h0c-.08,1.61.83,3.16,2.82,4.3L366,347.71a15.38,15.38,0,0,0,8.46,1.59Z" transform="translate(-125.02 -53.76)"/><path class="cls-8" d="M220,251.39l-5.45-.72v7h0c-.08,1.61.83,3.16,2.82,4.3l2.61,1.52Z" transform="translate(-125.02 -53.76)"/><path class="cls-5" d="M367.46,348.41a19,19,0,0,0,13.93-.87V332H367.46Z" transform="translate(-125.02 -53.76)"/><path class="cls-6" d="M366,340.75,217.41,255c-4.21-2.42-3.68-6.66,1.17-9.46l101.16-58.38c4.85-2.8,12.19-3.11,16.39-.68l148.56,85.77c4.2,2.42,3.67,6.66-1.18,9.46L382.36,340.07C377.5,342.87,370.16,343.18,366,340.75Z" transform="translate(-125.02 -53.76)"/><path class="cls-7" d="M483.51,279.15,382.36,337.53c-4.86,2.8-12.2,3.1-16.4.68L217.41,252.44a5.58,5.58,0,0,1-2.62-2.86c-.65,2,.18,4,2.62,5.41L366,340.75c4.2,2.43,11.54,2.12,16.4-.68l101.15-58.38c3.26-1.88,4.56-4.41,3.79-6.61A7.88,7.88,0,0,1,483.51,279.15Z" transform="translate(-125.02 -53.76)"/><path class="cls-8" d="M280.59,226.59l-6.72-3.88c-.54-.31-.48-.86.15-1.22l7.93-4.58a2.32,2.32,0,0,1,2.11-.08l6.72,3.88c.54.31.47.85-.15,1.21l-7.94,4.58A2.33,2.33,0,0,1,280.59,226.59Z" transform="translate(-125.02 -53.76)"/><path class="cls-8" d="M291,232.58l-6.72-3.88c-.54-.31-.48-.85.15-1.21l7.93-4.58a2.35,2.35,0,0,1,2.11-.09l6.72,3.88c.54.31.47.86-.15,1.22l-7.94,4.58A2.33,2.33,0,0,1,291,232.58Z" transform="translate(-125.02 -53.76)"/><path class="cls-8" d="M301.35,238.58l-6.72-3.88c-.54-.32-.48-.86.15-1.22l7.93-4.58a2.35,2.35,0,0,1,2.11-.09l6.72,3.88c.54.31.47.86-.15,1.22l-7.94,4.58A2.33,2.33,0,0,1,301.35,238.58Z" transform="translate(-125.02 -53.76)"/><path class="cls-8" d="M315.7,233.63,309,229.75c-.54-.32-.47-.86.15-1.22l6.66-3.84a2.36,2.36,0,0,1,2.11-.09l6.72,3.88c.54.31.47.85-.15,1.21l-6.66,3.85A2.35,2.35,0,0,1,315.7,233.63Z" transform="translate(-125.02 -53.76)"/><path class="cls-8" d="M326.08,239.62l-6.72-3.88c-.54-.31-.47-.86.15-1.22l6.66-3.84a2.36,2.36,0,0,1,2.11-.09l6.72,3.88c.54.31.47.86-.15,1.22l-6.66,3.84A2.35,2.35,0,0,1,326.08,239.62Z" transform="translate(-125.02 -53.76)"/><path class="cls-8" d="M336.46,245.61l-6.72-3.88c-.54-.31-.47-.85.15-1.21l6.66-3.85a2.36,2.36,0,0,1,2.11-.09l6.72,3.88c.54.32.47.86-.15,1.22l-6.66,3.85A2.35,2.35,0,0,1,336.46,245.61Z" transform="translate(-125.02 -53.76)"/><path class="cls-8" d="M346.84,251.61l-6.72-3.88c-.54-.32-.47-.86.15-1.22l6.66-3.85a2.35,2.35,0,0,1,2.11-.08l6.72,3.88c.54.31.47.85-.15,1.21L349,251.52A2.35,2.35,0,0,1,346.84,251.61Z" transform="translate(-125.02 -53.76)"/><path class="cls-8" d="M357.22,257.6l-6.72-3.88c-.54-.31-.47-.86.15-1.22l6.66-3.84a2.36,2.36,0,0,1,2.11-.09l6.72,3.88c.54.31.47.86-.15,1.22l-6.66,3.84A2.35,2.35,0,0,1,357.22,257.6Z" transform="translate(-125.02 -53.76)"/><path class="cls-8" d="M367.6,263.59l-6.72-3.88c-.54-.31-.47-.85.15-1.21l6.66-3.85a2.36,2.36,0,0,1,2.11-.09l6.72,3.88c.54.32.47.86-.15,1.22l-6.66,3.84A2.35,2.35,0,0,1,367.6,263.59Z" transform="translate(-125.02 -53.76)"/><path class="cls-8" d="M378,269.58l-6.72-3.88c-.54-.31-.47-.85.15-1.21l6.66-3.85a2.32,2.32,0,0,1,2.11-.08l6.72,3.88c.54.31.47.85-.15,1.21l-6.66,3.85A2.32,2.32,0,0,1,378,269.58Z" transform="translate(-125.02 -53.76)"/><path class="cls-8" d="M388.36,275.58l-6.72-3.88c-.54-.31-.47-.86.15-1.22l6.66-3.84a2.36,2.36,0,0,1,2.11-.09l6.72,3.88c.54.31.47.86-.15,1.22l-6.66,3.84A2.35,2.35,0,0,1,388.36,275.58Z" transform="translate(-125.02 -53.76)"/><path class="cls-8" d="M398.74,281.57,392,277.69c-.54-.31-.47-.86.15-1.22l6.66-3.84a2.36,2.36,0,0,1,2.11-.09l6.72,3.88c.54.31.47.86-.15,1.22l-6.66,3.84A2.35,2.35,0,0,1,398.74,281.57Z" transform="translate(-125.02 -53.76)"/><path class="cls-8" d="M409.12,287.56l-6.72-3.88c-.54-.31-.47-.85.15-1.21l6.66-3.85a2.36,2.36,0,0,1,2.11-.09l6.72,3.89c.54.31.47.85-.15,1.21l-6.66,3.85A2.35,2.35,0,0,1,409.12,287.56Z" transform="translate(-125.02 -53.76)"/><path class="cls-8" d="M331,230.79l-6.72-3.88c-.54-.31-.47-.86.15-1.22l6.66-3.84a2.33,2.33,0,0,1,2.1-.09l6.73,3.88c.53.31.47.86-.16,1.22l-6.66,3.84A2.33,2.33,0,0,1,331,230.79Z" transform="translate(-125.02 -53.76)"/><path class="cls-8" d="M320.46,224.71l-6.72-3.88c-.54-.31-.47-.86.15-1.22l6.66-3.84a2.36,2.36,0,0,1,2.11-.09l6.72,3.88c.54.31.47.86-.15,1.22l-6.66,3.84A2.35,2.35,0,0,1,320.46,224.71Z" transform="translate(-125.02 -53.76)"/><path class="cls-8" d="M309.91,218.62l-14.48-8.36c-.53-.31-.47-.86.16-1.22l6.66-3.84a2.33,2.33,0,0,1,2.1-.09l14.48,8.36c.54.31.47.85-.15,1.21L312,218.53A2.36,2.36,0,0,1,309.91,218.62Z" transform="translate(-125.02 -53.76)"/><path class="cls-8" d="M317.29,211.21l-11.75-6.79c-.54-.31-.47-.85.15-1.21l6.66-3.85a2.32,2.32,0,0,1,2.11-.08l11.74,6.78c.54.31.48.85-.15,1.21l-6.66,3.85A2.33,2.33,0,0,1,317.29,211.21Z" transform="translate(-125.02 -53.76)"/><path class="cls-8" d="M341.38,236.78l-6.72-3.88c-.54-.31-.47-.85.15-1.21l6.66-3.85a2.33,2.33,0,0,1,2.1-.09l6.73,3.88c.53.32.47.86-.16,1.22l-6.66,3.85A2.33,2.33,0,0,1,341.38,236.78Z" transform="translate(-125.02 -53.76)"/><path class="cls-8" d="M351.76,242.78,345,238.89c-.54-.31-.47-.85.15-1.21l6.66-3.85a2.33,2.33,0,0,1,2.1-.08l6.73,3.88c.53.31.47.85-.16,1.21l-6.66,3.85A2.33,2.33,0,0,1,351.76,242.78Z" transform="translate(-125.02 -53.76)"/><path class="cls-8" d="M362.14,248.77l-6.72-3.88c-.54-.31-.47-.86.15-1.22l6.66-3.84a2.33,2.33,0,0,1,2.1-.09l6.73,3.88c.53.31.47.86-.16,1.22l-6.66,3.84A2.33,2.33,0,0,1,362.14,248.77Z" transform="translate(-125.02 -53.76)"/><path class="cls-8" d="M372.52,254.76l-6.72-3.88c-.54-.31-.47-.86.15-1.21l6.66-3.85a2.33,2.33,0,0,1,2.1-.09l6.73,3.88c.53.32.47.86-.16,1.22l-6.66,3.84A2.33,2.33,0,0,1,372.52,254.76Z" transform="translate(-125.02 -53.76)"/><path class="cls-8" d="M382.9,260.75l-6.72-3.88c-.54-.31-.47-.85.15-1.21l6.66-3.85a2.3,2.3,0,0,1,2.1-.08l6.73,3.88c.53.31.47.85-.16,1.21L385,260.67A2.3,2.3,0,0,1,382.9,260.75Z" transform="translate(-125.02 -53.76)"/><path class="cls-8" d="M393.28,266.75l-6.72-3.88c-.54-.31-.47-.86.15-1.22l6.66-3.84a2.33,2.33,0,0,1,2.1-.09l6.73,3.88c.53.31.47.86-.16,1.21l-6.66,3.85A2.33,2.33,0,0,1,393.28,266.75Z" transform="translate(-125.02 -53.76)"/><path class="cls-8" d="M403.66,272.74l-6.72-3.88c-.54-.31-.47-.86.15-1.22l6.66-3.84a2.33,2.33,0,0,1,2.1-.09l6.73,3.88c.54.31.47.86-.16,1.22l-6.66,3.84A2.33,2.33,0,0,1,403.66,272.74Z" transform="translate(-125.02 -53.76)"/><path class="cls-8" d="M414,278.73l-6.72-3.88c-.54-.31-.47-.85.15-1.21l6.66-3.85a2.33,2.33,0,0,1,2.1-.09l6.73,3.89c.54.31.47.85-.16,1.21l-6.66,3.85A2.33,2.33,0,0,1,414,278.73Z" transform="translate(-125.02 -53.76)"/><path class="cls-8" d="M424.42,284.73l-6.72-3.88c-.54-.32-.47-.86.15-1.22l6.66-3.85a2.33,2.33,0,0,1,2.1-.08l6.73,3.88c.54.31.47.85-.16,1.21l-6.66,3.85A2.33,2.33,0,0,1,424.42,284.73Z" transform="translate(-125.02 -53.76)"/><path class="cls-8" d="M442.87,295.38l-14.66-8.47c-.54-.31-.48-.85.15-1.21l6.66-3.85a2.33,2.33,0,0,1,2.1-.09l14.67,8.47c.54.31.47.86-.15,1.22L445,295.29A2.36,2.36,0,0,1,442.87,295.38Z" transform="translate(-125.02 -53.76)"/><path class="cls-8" d="M463.08,283.71l-12.38-7.14c-.54-.32-.47-.86.15-1.22l6.66-3.84a2.36,2.36,0,0,1,2.11-.09L472,278.56c.54.32.47.86-.15,1.22l-6.66,3.85A2.35,2.35,0,0,1,463.08,283.71Z" transform="translate(-125.02 -53.76)"/><path class="cls-8" d="M359.56,235.61l-6.73-3.88c-.53-.31-.47-.86.16-1.22l6.66-3.84a2.33,2.33,0,0,1,2.1-.09l6.72,3.88c.54.31.47.86-.15,1.22l-6.66,3.84A2.33,2.33,0,0,1,359.56,235.61Z" transform="translate(-125.02 -53.76)"/><path class="cls-8" d="M348.92,229.47l-6.72-3.88c-.54-.31-.48-.86.15-1.22l6.66-3.84a2.33,2.33,0,0,1,2.1-.09l6.72,3.88c.54.31.48.86-.15,1.22L351,229.38A2.33,2.33,0,0,1,348.92,229.47Z" transform="translate(-125.02 -53.76)"/><path class="cls-8" d="M338.28,223.33l-6.72-3.88c-.54-.32-.47-.86.15-1.22l6.66-3.85a2.36,2.36,0,0,1,2.1-.08l6.73,3.88c.54.31.47.85-.15,1.21l-6.66,3.85A2.36,2.36,0,0,1,338.28,223.33Z" transform="translate(-125.02 -53.76)"/><path class="cls-8" d="M327.64,217.18l-6.72-3.88c-.54-.31-.47-.85.15-1.21l6.66-3.85a2.32,2.32,0,0,1,2.11-.08l6.72,3.88c.54.31.47.85-.15,1.21l-6.66,3.85A2.32,2.32,0,0,1,327.64,217.18Z" transform="translate(-125.02 -53.76)"/><path class="cls-8" d="M369.94,241.6l-6.73-3.88c-.53-.31-.47-.85.16-1.21l6.66-3.85a2.33,2.33,0,0,1,2.1-.09l6.72,3.89c.54.31.47.85-.15,1.21L372,241.52A2.33,2.33,0,0,1,369.94,241.6Z" transform="translate(-125.02 -53.76)"/><path class="cls-8" d="M380.32,247.6l-6.73-3.88c-.53-.32-.47-.86.16-1.22l6.66-3.85a2.33,2.33,0,0,1,2.1-.08l6.72,3.88c.54.31.47.85-.15,1.21l-6.66,3.85A2.33,2.33,0,0,1,380.32,247.6Z" transform="translate(-125.02 -53.76)"/><path class="cls-8" d="M390.7,253.59,384,249.71c-.53-.31-.47-.86.16-1.22l6.66-3.84a2.33,2.33,0,0,1,2.1-.09l6.72,3.88c.54.31.47.86-.15,1.22l-6.66,3.84A2.33,2.33,0,0,1,390.7,253.59Z" transform="translate(-125.02 -53.76)"/><path class="cls-8" d="M401.08,259.58l-6.73-3.88c-.53-.31-.47-.85.16-1.21l6.66-3.85a2.33,2.33,0,0,1,2.1-.09l6.72,3.88c.54.32.47.86-.15,1.22l-6.66,3.84A2.33,2.33,0,0,1,401.08,259.58Z" transform="translate(-125.02 -53.76)"/><path class="cls-8" d="M411.46,265.57l-6.73-3.88c-.53-.31-.47-.85.16-1.21l6.66-3.85a2.3,2.3,0,0,1,2.1-.08l6.72,3.88c.54.31.47.85-.15,1.21l-6.66,3.85A2.3,2.3,0,0,1,411.46,265.57Z" transform="translate(-125.02 -53.76)"/><path class="cls-8" d="M421.84,271.57l-6.73-3.88c-.53-.31-.47-.86.16-1.22l6.66-3.84a2.33,2.33,0,0,1,2.1-.09l6.72,3.88c.54.31.48.86-.15,1.22l-6.66,3.84A2.33,2.33,0,0,1,421.84,271.57Z" transform="translate(-125.02 -53.76)"/><path class="cls-8" d="M432.22,277.56l-6.73-3.88c-.53-.31-.47-.86.16-1.22l6.66-3.84a2.33,2.33,0,0,1,2.1-.09l6.72,3.88c.54.31.48.86-.15,1.22l-6.66,3.84A2.33,2.33,0,0,1,432.22,277.56Z" transform="translate(-125.02 -53.76)"/><path class="cls-8" d="M442.6,283.55l-6.73-3.88c-.53-.31-.47-.85.16-1.21l6.66-3.85a2.33,2.33,0,0,1,2.1-.09l6.72,3.89c.54.31.48.85-.15,1.21l-6.66,3.85A2.3,2.3,0,0,1,442.6,283.55Z" transform="translate(-125.02 -53.76)"/><path class="cls-8" d="M453,289.55l-6.72-3.88c-.54-.32-.48-.86.15-1.22l6.66-3.84a2.33,2.33,0,0,1,2.1-.09l6.72,3.88c.54.31.48.85-.15,1.21l-6.66,3.85A2.33,2.33,0,0,1,453,289.55Z" transform="translate(-125.02 -53.76)"/><path class="cls-8" d="M354.09,220.79l-6.72-3.88c-.54-.32-.47-.86.15-1.22l6.66-3.84a2.35,2.35,0,0,1,2.11-.09l6.72,3.88c.54.31.47.85-.15,1.21l-6.66,3.85A2.36,2.36,0,0,1,354.09,220.79Z" transform="translate(-125.02 -53.76)"/><path class="cls-8" d="M343.76,214.82,337,210.94c-.54-.31-.47-.85.15-1.21l6.66-3.85a2.32,2.32,0,0,1,2.11-.08l6.72,3.88c.54.31.47.85-.15,1.21l-6.66,3.85A2.32,2.32,0,0,1,343.76,214.82Z" transform="translate(-125.02 -53.76)"/><path class="cls-8" d="M333.43,208.86,326.71,205c-.54-.31-.47-.86.15-1.22l6.66-3.84a2.36,2.36,0,0,1,2.11-.09l6.72,3.88c.54.31.47.86-.15,1.22l-6.66,3.84A2.35,2.35,0,0,1,333.43,208.86Z" transform="translate(-125.02 -53.76)"/><path class="cls-8" d="M323.11,202.9,316.38,199c-.54-.31-.47-.86.15-1.22l6.66-3.84a2.36,2.36,0,0,1,2.11-.09l6.72,3.88c.54.31.47.86-.15,1.22l-6.66,3.84A2.33,2.33,0,0,1,323.11,202.9Z" transform="translate(-125.02 -53.76)"/><path class="cls-8" d="M333.73,196.77,327,192.89c-.54-.32-.47-.86.16-1.22l2.2-1.27a2.33,2.33,0,0,1,2.1-.09l6.72,3.88c.54.31.48.86-.15,1.22l-2.2,1.27A2.33,2.33,0,0,1,333.73,196.77Z" transform="translate(-125.02 -53.76)"/><path class="cls-8" d="M347.2,204.55l-6.72-3.88c-.54-.31-.47-.86.15-1.22l2.21-1.27a2.33,2.33,0,0,1,2.1-.09l6.72,3.88c.54.32.47.86-.15,1.22l-2.2,1.27A2.35,2.35,0,0,1,347.2,204.55Z" transform="translate(-125.02 -53.76)"/><path class="cls-8" d="M357.49,210.49l-6.72-3.88c-.54-.32-.47-.86.15-1.22l2.2-1.27a2.35,2.35,0,0,1,2.11-.09l6.72,3.88c.54.31.47.86-.15,1.22l-2.2,1.27A2.36,2.36,0,0,1,357.49,210.49Z" transform="translate(-125.02 -53.76)"/><path class="cls-8" d="M367.78,216.42l-6.73-3.88c-.54-.31-.47-.85.15-1.21l2.21-1.27a2.33,2.33,0,0,1,2.1-.09l6.72,3.88c.54.31.48.86-.15,1.22l-2.2,1.27A2.3,2.3,0,0,1,367.78,216.42Z" transform="translate(-125.02 -53.76)"/><path class="cls-8" d="M378.06,222.36l-6.72-3.88c-.54-.31-.47-.85.15-1.21l2.2-1.27a2.36,2.36,0,0,1,2.11-.09l6.72,3.88c.54.31.47.85-.15,1.21l-2.2,1.28A2.35,2.35,0,0,1,378.06,222.36Z" transform="translate(-125.02 -53.76)"/><path class="cls-8" d="M435.48,255.51l-6.72-3.88c-.54-.31-.47-.85.15-1.21l2.2-1.27a2.36,2.36,0,0,1,2.11-.09l6.72,3.88c.54.31.47.86-.15,1.22l-2.2,1.27A2.32,2.32,0,0,1,435.48,255.51Z" transform="translate(-125.02 -53.76)"/><path class="cls-8" d="M445.77,261.45l-6.72-3.88c-.54-.31-.48-.85.15-1.21l2.2-1.27a2.33,2.33,0,0,1,2.1-.09l6.73,3.88c.54.31.47.85-.16,1.21l-2.2,1.28A2.33,2.33,0,0,1,445.77,261.45Z" transform="translate(-125.02 -53.76)"/><path class="cls-8" d="M456.05,267.39l-6.72-3.88c-.54-.31-.47-.86.15-1.21l2.2-1.28a2.35,2.35,0,0,1,2.11-.08l6.72,3.88c.54.31.47.85-.15,1.21l-2.2,1.27A2.35,2.35,0,0,1,456.05,267.39Z" transform="translate(-125.02 -53.76)"/><path class="cls-8" d="M466.34,273.33l-6.72-3.88c-.54-.31-.48-.86.15-1.22L462,267a2.35,2.35,0,0,1,2.11-.09l6.72,3.89c.54.31.47.85-.15,1.21l-2.21,1.27A2.33,2.33,0,0,1,466.34,273.33Z" transform="translate(-125.02 -53.76)"/><path class="cls-8" d="M364.47,226.78l-6.72-3.88c-.54-.31-.47-.86.15-1.22l6.66-3.84a2.35,2.35,0,0,1,2.11-.09l6.72,3.88c.54.31.47.86-.15,1.22l-6.66,3.84A2.36,2.36,0,0,1,364.47,226.78Z" transform="translate(-125.02 -53.76)"/><path class="cls-8" d="M374.85,232.77l-6.72-3.88c-.54-.31-.47-.85.15-1.21l6.66-3.85a2.35,2.35,0,0,1,2.11-.09l6.72,3.88c.54.32.47.86-.15,1.22L377,232.69A2.35,2.35,0,0,1,374.85,232.77Z" transform="translate(-125.02 -53.76)"/><path class="cls-8" d="M385.23,238.77l-6.72-3.88c-.54-.32-.47-.86.15-1.22l6.66-3.85a2.35,2.35,0,0,1,2.11-.08l6.72,3.88c.54.31.47.85-.15,1.21l-6.66,3.85A2.36,2.36,0,0,1,385.23,238.77Z" transform="translate(-125.02 -53.76)"/><path class="cls-8" d="M395.61,244.76l-6.72-3.88c-.54-.31-.47-.86.15-1.22l6.66-3.84a2.35,2.35,0,0,1,2.11-.09l6.72,3.88c.54.31.47.86-.15,1.22l-6.66,3.84A2.36,2.36,0,0,1,395.61,244.76Z" transform="translate(-125.02 -53.76)"/><path class="cls-8" d="M406,250.75l-6.72-3.88c-.54-.31-.47-.85.15-1.21l6.66-3.85a2.35,2.35,0,0,1,2.11-.09l6.72,3.88c.54.32.47.86-.15,1.22l-6.66,3.84A2.36,2.36,0,0,1,406,250.75Z" transform="translate(-125.02 -53.76)"/><path class="cls-8" d="M416.37,256.74l-6.72-3.88c-.54-.31-.47-.85.15-1.21l6.66-3.85a2.32,2.32,0,0,1,2.11-.08l6.72,3.88c.54.31.47.85-.15,1.21l-6.66,3.85A2.32,2.32,0,0,1,416.37,256.74Z" transform="translate(-125.02 -53.76)"/><path class="cls-8" d="M426.75,262.74,420,258.86c-.54-.31-.47-.86.15-1.22l6.66-3.84a2.35,2.35,0,0,1,2.11-.09l6.72,3.88c.54.31.47.86-.15,1.22l-6.66,3.84A2.36,2.36,0,0,1,426.75,262.74Z" transform="translate(-125.02 -53.76)"/><path class="cls-8" d="M437.13,268.73l-6.72-3.88c-.54-.31-.47-.86.15-1.22l6.66-3.84a2.35,2.35,0,0,1,2.11-.09l6.72,3.88c.54.31.47.86-.15,1.22l-6.66,3.84A2.36,2.36,0,0,1,437.13,268.73Z" transform="translate(-125.02 -53.76)"/><path class="cls-8" d="M447.51,274.72l-6.72-3.88c-.54-.31-.47-.85.15-1.21l6.66-3.85a2.35,2.35,0,0,1,2.11-.09l6.72,3.89c.54.31.47.85-.15,1.21l-6.66,3.85A2.35,2.35,0,0,1,447.51,274.72Z" transform="translate(-125.02 -53.76)"/><path class="cls-8" d="M305.13,227.52l-19.8-11.43c-.54-.31-.47-.85.15-1.21l6.66-3.85a2.35,2.35,0,0,1,2.11-.09L314,222.37c.54.31.47.86-.15,1.22l-6.66,3.84A2.33,2.33,0,0,1,305.13,227.52Z" transform="translate(-125.02 -53.76)"/><path class="cls-8" d="M432.65,301.14l-19.8-11.42c-.54-.32-.47-.86.15-1.22l6.66-3.85a2.35,2.35,0,0,1,2.11-.08L441.56,296c.54.31.48.85-.15,1.21l-6.66,3.85A2.3,2.3,0,0,1,432.65,301.14Z" transform="translate(-125.02 -53.76)"/><path class="cls-8" d="M391.14,290.42l-6.73-3.89c-.53-.31-.47-.85.16-1.21l7.93-4.58a2.35,2.35,0,0,1,2.11-.09l6.72,3.88c.54.31.47.86-.15,1.22l-7.94,4.58A2.33,2.33,0,0,1,391.14,290.42Z" transform="translate(-125.02 -53.76)"/><path class="cls-8" d="M315.76,246.89,305,240.69c-.54-.31-.48-.86.15-1.22l7.93-4.58a2.32,2.32,0,0,1,2.11-.08L326,241c.54.31.47.86-.15,1.22l-7.94,4.58A2.3,2.3,0,0,1,315.76,246.89Z" transform="translate(-125.02 -53.76)"/><path class="cls-8" d="M381.13,284.64l-10.74-6.21c-.54-.31-.48-.85.15-1.21l7.93-4.58a2.35,2.35,0,0,1,2.11-.09l10.75,6.21c.53.31.47.85-.16,1.21l-7.93,4.58A2.35,2.35,0,0,1,381.13,284.64Z" transform="translate(-125.02 -53.76)"/><path class="cls-8" d="M330.73,255.54,320,249.34c-.54-.32-.47-.86.15-1.22l7.94-4.58a2.33,2.33,0,0,1,2.1-.09l10.75,6.21c.54.31.47.85-.15,1.21l-7.93,4.58A2.36,2.36,0,0,1,330.73,255.54Z" transform="translate(-125.02 -53.76)"/><path class="cls-8" d="M330.25,243.49l46.73,27c.58.33.58.87,0,1.21l-8.09,4.67a2.35,2.35,0,0,1-2.1,0l-46.73-27Z" transform="translate(-125.02 -53.76)"/><path class="cls-8" d="M420.15,301.28l7.48,4.32c.45.26.39.71-.12,1l-3.25,1.87a1.91,1.91,0,0,1-1.72.08l-7.49-4.33c-.44-.25-.39-.7.13-1l3.24-1.88A2,2,0,0,1,420.15,301.28Z" transform="translate(-125.02 -53.76)"/><path class="cls-8" d="M409.68,295.24l7.49,4.32c.44.26.38.7-.13,1l-3.24,1.87a1.9,1.9,0,0,1-1.73.07l-7.48-4.32c-.45-.25-.39-.7.12-1l3.24-1.87A1.93,1.93,0,0,1,409.68,295.24Z" transform="translate(-125.02 -53.76)"/><path class="cls-8" d="M399.3,289.25l7.49,4.32c.44.25.38.7-.13,1l-3.24,1.88a1.93,1.93,0,0,1-1.73.07l-7.48-4.32c-.45-.26-.39-.7.12-1l3.24-1.87A1.9,1.9,0,0,1,399.3,289.25Z" transform="translate(-125.02 -53.76)"/><path class="cls-8" d="M415.41,291.93l7.49,4.32c.44.26.39.7-.12,1l-3.25,1.87a1.9,1.9,0,0,1-1.73.07l-7.48-4.32c-.44-.25-.39-.7.12-1l3.25-1.87A1.91,1.91,0,0,1,415.41,291.93Z" transform="translate(-125.02 -53.76)"/><polygon class="cls-6" points="331.39 121.23 275.48 88.95 276.2 85.31 332.11 117.6 331.39 121.23"/><polygon class="cls-6" points="311.37 127.36 272.34 104.83 273.06 101.2 312.08 123.73 311.37 127.36"/><polygon class="cls-7" points="307.67 116.39 273.91 96.89 274.63 93.26 308.39 112.75 307.67 116.39"/><polygon class="cls-9" points="329.82 129.17 312.94 119.42 313.66 115.79 330.54 125.54 329.82 129.17"/><polygon class="cls-6" points="269.52 57.24 252.64 47.49 253.36 43.85 270.24 53.6 269.52 57.24"/><polygon class="cls-7" points="267.69 65.69 250.81 55.94 251.53 52.3 268.41 62.05 267.69 65.69"/><polygon class="cls-6" points="350.55 182.85 333.67 173.1 334.39 169.47 351.27 179.22 350.55 182.85"/><polygon class="cls-6" points="264.03 82.58 247.15 72.83 247.87 69.2 264.75 78.94 264.03 82.58"/><path class="cls-9" d="M425.53,139a2.11,2.11,0,0,1-3,.93,2.64,2.64,0,0,1-1.08-3.31,2.1,2.1,0,0,1,3-.94A2.64,2.64,0,0,1,425.53,139Z" transform="translate(-125.02 -53.76)"/><path class="cls-7" d="M432.8,143.16a2.1,2.1,0,0,1-3,.93,2.64,2.64,0,0,1-1.09-3.32,2.1,2.1,0,0,1,3-.93A2.64,2.64,0,0,1,432.8,143.16Z" transform="translate(-125.02 -53.76)"/><path class="cls-6" d="M440.07,147.35a2.09,2.09,0,0,1-3,.94A2.64,2.64,0,0,1,436,145a2.11,2.11,0,0,1,3-.93A2.63,2.63,0,0,1,440.07,147.35Z" transform="translate(-125.02 -53.76)"/><path class="cls-9" d="M447.35,151.55a2.11,2.11,0,0,1-3,.94,2.64,2.64,0,0,1-1.09-3.32,2.11,2.11,0,0,1,3-.93A2.64,2.64,0,0,1,447.35,151.55Z" transform="translate(-125.02 -53.76)"/><path class="cls-7" d="M326.48,302.85l-46.35-26.76c-1.35-.77-1.18-2.14.38-3l28-16.15a5.84,5.84,0,0,1,5.26-.22l46.35,26.76c1.35.78,1.18,2.14-.38,3l-28,16.14A5.84,5.84,0,0,1,326.48,302.85Z" transform="translate(-125.02 -53.76)"/><g class="cls-10"><g class="cls-11"><path class="cls-6" d="M427.06,182.34c3.2,1.84,3.2,4.84,0,6.68l-54.27,31.34a3.5,3.5,0,0,1-3.18,0,1,1,0,0,1,0-1.84l54.27-31.33c1.44-.83,1.44-2.18,0-3l-5.26-3c.59-.88,1.12-1.8,1.64-2.73Z" transform="translate(-125.02 -53.76)"/><path class="cls-8" d="M350.2,207.31,404.47,176a12.84,12.84,0,0,1,11.58,0l4.21,2.43c-.52.93-1.05,1.85-1.64,2.73l-5.75-3.32a5.72,5.72,0,0,0-5.22,0l-54.27,31.33a3.5,3.5,0,0,1-3.18,0A1,1,0,0,1,350.2,207.31Z" transform="translate(-125.02 -53.76)"/><polygon class="cls-8" points="224.52 154.54 224.51 78.22 281.39 46.52 289.34 45.99 297.03 50.97 301.75 55.08 246.34 142.95 228.25 153.62 224.52 154.54"/><polygon class="cls-12" points="245.55 164.17 228.55 154.36 228.55 80.61 246.08 88.75 245.55 164.17"/><polygon class="cls-6" points="304.43 55.67 304.43 131.86 244.73 166.01 243.93 165.69 243.93 89.39 304.43 55.67"/><path class="cls-7" d="M395.88,110.06l11.86-6.81a5.85,5.85,0,0,1,4.91.14l11,6.36a1.67,1.67,0,0,1,1,1.81l-30,17.92-24.08,14.78-17.06-9.89Z" transform="translate(-125.02 -53.76)"/><path class="cls-8" d="M371.1,142v78.77a3.16,3.16,0,0,1-1.49-.37,1.11,1.11,0,0,1-.65-.9h0v0h0V143.15Z" transform="translate(-125.02 -53.76)"/><polygon class="cls-7" points="224.51 79.17 224.51 78.22 224.82 78.22 224.91 78.87 224.51 79.17"/><polygon class="cls-7" points="243.93 90.38 243.93 89.41 244.22 89.82 243.93 90.38"/><path class="cls-6" d="M372.79,144.06l54.27-31.34c3.2-1.84,3.2-4.84,0-6.68l-11-6.36a12.84,12.84,0,0,0-11.58,0L350.2,131a1,1,0,0,0,0,1.84,3.56,3.56,0,0,0,3.18,0l54.27-31.34a5.78,5.78,0,0,1,5.22,0l11,6.36c1.44.83,1.44,2.19,0,3l-54.27,31.33a1,1,0,0,0,0,1.84A3.56,3.56,0,0,0,372.79,144.06Z" transform="translate(-125.02 -53.76)"/><polygon class="cls-7" points="261.91 126.42 290.11 110.14 290.11 81.86 261.91 98.15 261.91 126.42"/><path class="cls-7" d="M350.2,132.85a3.56,3.56,0,0,0,3.18,0l54.27-31.34a5.78,5.78,0,0,1,5.22,0l11,6.36c.95.55,1.27,1.31,1,2a2.18,2.18,0,0,0-1-1l-11-6.36a5.78,5.78,0,0,0-5.22,0l-54.27,31.33a3.5,3.5,0,0,1-3.18,0c-.67-.38-.83-.95-.48-1.42A1.44,1.44,0,0,0,350.2,132.85Z" transform="translate(-125.02 -53.76)"/><path class="cls-7" d="M369.61,144.06a3.56,3.56,0,0,0,3.18,0l54.27-31.34a4.36,4.36,0,0,0,2.35-2.84c.25,1.37-.53,2.8-2.35,3.85l-54.27,31.33a3.5,3.5,0,0,1-3.18,0c-.66-.38-.82-.95-.48-1.42A1.68,1.68,0,0,0,369.61,144.06Z" transform="translate(-125.02 -53.76)"/><path class="cls-13" d="M452,197.11c3.2,1.84,3.2,4.84,0,6.69l-54.27,31.33a3.5,3.5,0,0,1-3.18,0,1,1,0,0,1,0-1.84L448.83,202c1.44-.83,1.44-2.18,0-3l-5.25-3c.58-.88,1.11-1.79,1.63-2.73Z" transform="translate(-125.02 -53.76)"/><path class="cls-13" d="M375.15,222.09l54.27-31.34a12.84,12.84,0,0,1,11.58,0l4.21,2.43c-.52.94-1,1.85-1.63,2.73l-5.76-3.32a5.78,5.78,0,0,0-5.22,0l-54.27,31.33a3.5,3.5,0,0,1-3.18,0A1,1,0,0,1,375.15,222.09Z" transform="translate(-125.02 -53.76)"/><polygon class="cls-13" points="249.47 169.31 249.47 92.99 306.34 61.29 314.29 60.76 321.98 65.75 326.7 69.85 271.29 157.73 253.2 168.39 249.47 169.31"/><polygon class="cls-14" points="270.5 178.95 253.5 169.13 253.5 95.38 271.03 103.52 270.5 178.95"/><polygon class="cls-9" points="329.38 70.44 329.38 146.63 269.68 180.79 268.88 180.47 268.88 104.16 329.38 70.44"/><path class="cls-7" d="M420.83,124.84,432.69,118a5.81,5.81,0,0,1,4.91.15l11,6.35c.85.5,1.19,1.17,1,1.81l-30,17.92L395.59,159l-17.06-9.89Z" transform="translate(-125.02 -53.76)"/><path class="cls-13" d="M396.05,156.73V235.5a3.16,3.16,0,0,1-1.49-.37,1.1,1.1,0,0,1-.65-.9h0V157.93Z" transform="translate(-125.02 -53.76)"/><polygon class="cls-7" points="249.47 93.94 249.47 92.99 249.77 92.99 249.86 93.64 249.47 93.94"/><polygon class="cls-7" points="268.88 105.15 268.88 104.18 269.18 104.59 268.88 105.15"/><path class="cls-9" d="M397.74,158.83,452,127.49c3.2-1.84,3.2-4.84,0-6.68l-11-6.36a12.84,12.84,0,0,0-11.58,0l-54.27,31.33a1,1,0,0,0,0,1.84,3.5,3.5,0,0,0,3.18,0l54.27-31.33a5.72,5.72,0,0,1,5.22,0l11,6.35c1.44.84,1.44,2.19,0,3L394.56,157a1,1,0,0,0,0,1.84A3.5,3.5,0,0,0,397.74,158.83Z" transform="translate(-125.02 -53.76)"/><polygon class="cls-7" points="286.86 141.19 315.06 124.91 315.06 96.64 286.86 112.92 286.86 141.19"/><path class="cls-7" d="M375.15,147.62a3.5,3.5,0,0,0,3.18,0l54.27-31.33a5.72,5.72,0,0,1,5.22,0l11,6.35c.95.55,1.27,1.32,1,2a2.27,2.27,0,0,0-1-1l-11-6.36a5.78,5.78,0,0,0-5.22,0l-54.27,31.33a3.5,3.5,0,0,1-3.18,0c-.67-.38-.83-.94-.48-1.42A1.43,1.43,0,0,0,375.15,147.62Z" transform="translate(-125.02 -53.76)"/><path class="cls-7" d="M394.56,158.83a3.5,3.5,0,0,0,3.18,0L452,127.49a4.36,4.36,0,0,0,2.35-2.84c.25,1.38-.53,2.8-2.35,3.85l-54.27,31.33a3.5,3.5,0,0,1-3.18,0c-.66-.38-.82-.94-.48-1.42A1.54,1.54,0,0,0,394.56,158.83Z" transform="translate(-125.02 -53.76)"/><path class="cls-6" d="M477.65,212.9c3.19,1.84,3.19,4.84,0,6.68l-54.27,31.34a3.56,3.56,0,0,1-3.18,0,1,1,0,0,1,0-1.84l54.27-31.33c1.44-.83,1.44-2.19,0-3l-5.26-3c.59-.88,1.12-1.8,1.64-2.73Z" transform="translate(-125.02 -53.76)"/><path class="cls-8" d="M400.79,237.87l54.27-31.33a12.84,12.84,0,0,1,11.58,0l4.21,2.43c-.52.93-1.05,1.85-1.64,2.73l-5.75-3.32a5.72,5.72,0,0,0-5.22,0L404,239.71a3.5,3.5,0,0,1-3.18,0A1,1,0,0,1,400.79,237.87Z" transform="translate(-125.02 -53.76)"/><polygon class="cls-8" points="275.11 185.1 275.1 108.78 331.98 77.08 339.93 76.55 347.62 81.53 352.34 85.64 296.93 173.51 278.84 184.18 275.11 185.1"/><polygon class="cls-12" points="296.14 194.73 279.14 184.92 279.14 111.17 296.67 119.31 296.14 194.73"/><polygon class="cls-6" points="355.02 86.23 355.02 162.42 295.32 196.57 294.52 196.25 294.52 119.95 355.02 86.23"/><path class="cls-7" d="M446.47,140.62l11.86-6.81a5.81,5.81,0,0,1,4.91.14l11,6.36a1.67,1.67,0,0,1,1,1.81l-30,17.92-24.08,14.78-17.06-9.89Z" transform="translate(-125.02 -53.76)"/><path class="cls-8" d="M421.69,172.52v78.77a3.16,3.16,0,0,1-1.49-.37,1.11,1.11,0,0,1-.65-.9h0V173.71Z" transform="translate(-125.02 -53.76)"/><polygon class="cls-7" points="275.1 109.73 275.1 108.78 275.41 108.78 275.5 109.43 275.1 109.73"/><polygon class="cls-7" points="294.52 120.94 294.52 119.97 294.81 120.38 294.52 120.94"/><path class="cls-6" d="M423.38,174.62l54.27-31.34c3.19-1.84,3.19-4.84,0-6.68l-11-6.36a12.77,12.77,0,0,0-11.58,0l-54.27,31.33a1,1,0,0,0,0,1.84,3.56,3.56,0,0,0,3.18,0l54.27-31.34a5.78,5.78,0,0,1,5.22,0l11,6.36c1.44.83,1.44,2.19,0,3L420.2,172.78a1,1,0,0,0,0,1.84A3.56,3.56,0,0,0,423.38,174.62Z" transform="translate(-125.02 -53.76)"/><polygon class="cls-7" points="312.5 156.98 340.7 140.69 340.7 112.42 312.5 128.71 312.5 156.98"/><path class="cls-7" d="M400.79,163.41a3.56,3.56,0,0,0,3.18,0l54.27-31.34a5.78,5.78,0,0,1,5.22,0l11,6.36c.95.55,1.27,1.31,1,2a2.18,2.18,0,0,0-1-1l-11-6.36a5.78,5.78,0,0,0-5.22,0L404,164.41a3.5,3.5,0,0,1-3.18,0c-.67-.38-.83-.95-.48-1.42A1.56,1.56,0,0,0,400.79,163.41Z" transform="translate(-125.02 -53.76)"/><path class="cls-7" d="M420.2,174.62a3.56,3.56,0,0,0,3.18,0l54.27-31.34a4.36,4.36,0,0,0,2.35-2.84c.25,1.37-.53,2.8-2.35,3.85l-54.27,31.33a3.5,3.5,0,0,1-3.18,0c-.66-.38-.82-1-.48-1.42A1.68,1.68,0,0,0,420.2,174.62Z" transform="translate(-125.02 -53.76)"/></g></g><g class="cls-15"><path class="cls-6" d="M427.06,182.34c3.2,1.84,3.2,4.84,0,6.68l-54.27,31.34a3.5,3.5,0,0,1-3.18,0,1,1,0,0,1,0-1.84l54.27-31.33c1.44-.83,1.44-2.18,0-3l-5.26-3c.59-.88,1.12-1.8,1.64-2.73Z" transform="translate(-125.02 -53.76)"/><path class="cls-8" d="M350.2,207.31,404.47,176a12.84,12.84,0,0,1,11.58,0l4.21,2.43c-.52.93-1.05,1.85-1.64,2.73l-5.75-3.32a5.72,5.72,0,0,0-5.22,0l-54.27,31.33a3.5,3.5,0,0,1-3.18,0A1,1,0,0,1,350.2,207.31Z" transform="translate(-125.02 -53.76)"/><polygon class="cls-8" points="224.52 154.54 224.51 78.22 281.39 46.52 289.34 45.99 297.03 50.97 301.75 55.08 246.34 142.95 228.25 153.62 224.52 154.54"/><polygon class="cls-12" points="245.55 164.17 228.55 154.36 228.55 80.61 246.08 88.75 245.55 164.17"/><polygon class="cls-6" points="304.43 55.67 304.43 131.86 244.73 166.01 243.93 165.69 243.93 89.39 304.43 55.67"/><path class="cls-7" d="M395.88,110.06l11.86-6.81a5.85,5.85,0,0,1,4.91.14l11,6.36a1.67,1.67,0,0,1,1,1.81l-30,17.92-24.08,14.78-17.06-9.89Z" transform="translate(-125.02 -53.76)"/><path class="cls-8" d="M371.1,142v78.77a3.16,3.16,0,0,1-1.49-.37,1.11,1.11,0,0,1-.65-.9h0v0h0V143.15Z" transform="translate(-125.02 -53.76)"/><polygon class="cls-7" points="224.51 79.17 224.51 78.22 224.82 78.22 224.91 78.87 224.51 79.17"/><polygon class="cls-7" points="243.93 90.38 243.93 89.41 244.22 89.82 243.93 90.38"/><path class="cls-6" d="M372.79,144.06l54.27-31.34c3.2-1.84,3.2-4.84,0-6.68l-11-6.36a12.84,12.84,0,0,0-11.58,0L350.2,131a1,1,0,0,0,0,1.84,3.56,3.56,0,0,0,3.18,0l54.27-31.34a5.78,5.78,0,0,1,5.22,0l11,6.36c1.44.83,1.44,2.19,0,3l-54.27,31.33a1,1,0,0,0,0,1.84A3.56,3.56,0,0,0,372.79,144.06Z" transform="translate(-125.02 -53.76)"/><polygon class="cls-7" points="261.91 126.42 290.11 110.14 290.11 81.86 261.91 98.15 261.91 126.42"/><path class="cls-7" d="M350.2,132.85a3.56,3.56,0,0,0,3.18,0l54.27-31.34a5.78,5.78,0,0,1,5.22,0l11,6.36c.95.55,1.27,1.31,1,2a2.18,2.18,0,0,0-1-1l-11-6.36a5.78,5.78,0,0,0-5.22,0l-54.27,31.33a3.5,3.5,0,0,1-3.18,0c-.67-.38-.83-.95-.48-1.42A1.44,1.44,0,0,0,350.2,132.85Z" transform="translate(-125.02 -53.76)"/><path class="cls-7" d="M369.61,144.06a3.56,3.56,0,0,0,3.18,0l54.27-31.34a4.36,4.36,0,0,0,2.35-2.84c.25,1.37-.53,2.8-2.35,3.85l-54.27,31.33a3.5,3.5,0,0,1-3.18,0c-.66-.38-.82-.95-.48-1.42A1.68,1.68,0,0,0,369.61,144.06Z" transform="translate(-125.02 -53.76)"/><path class="cls-13" d="M452,197.11c3.2,1.84,3.2,4.84,0,6.69l-54.27,31.33a3.5,3.5,0,0,1-3.18,0,1,1,0,0,1,0-1.84L448.83,202c1.44-.83,1.44-2.18,0-3l-5.25-3c.58-.88,1.11-1.79,1.63-2.73Z" transform="translate(-125.02 -53.76)"/><path class="cls-13" d="M375.15,222.09l54.27-31.34a12.84,12.84,0,0,1,11.58,0l4.21,2.43c-.52.94-1,1.85-1.63,2.73l-5.76-3.32a5.78,5.78,0,0,0-5.22,0l-54.27,31.33a3.5,3.5,0,0,1-3.18,0A1,1,0,0,1,375.15,222.09Z" transform="translate(-125.02 -53.76)"/><polygon class="cls-13" points="249.47 169.31 249.47 92.99 306.34 61.29 314.29 60.76 321.98 65.75 326.7 69.85 271.29 157.73 253.2 168.39 249.47 169.31"/><polygon class="cls-14" points="270.5 178.95 253.5 169.13 253.5 95.38 271.03 103.52 270.5 178.95"/><polygon class="cls-9" points="329.38 70.44 329.38 146.63 269.68 180.79 268.88 180.47 268.88 104.16 329.38 70.44"/><path class="cls-7" d="M420.83,124.84,432.69,118a5.81,5.81,0,0,1,4.91.15l11,6.35c.85.5,1.19,1.17,1,1.81l-30,17.92L395.59,159l-17.06-9.89Z" transform="translate(-125.02 -53.76)"/><path class="cls-13" d="M396.05,156.73V235.5a3.16,3.16,0,0,1-1.49-.37,1.1,1.1,0,0,1-.65-.9h0V157.93Z" transform="translate(-125.02 -53.76)"/><polygon class="cls-7" points="249.47 93.94 249.47 92.99 249.77 92.99 249.86 93.64 249.47 93.94"/><polygon class="cls-7" points="268.88 105.15 268.88 104.18 269.18 104.59 268.88 105.15"/><path class="cls-9" d="M397.74,158.83,452,127.49c3.2-1.84,3.2-4.84,0-6.68l-11-6.36a12.84,12.84,0,0,0-11.58,0l-54.27,31.33a1,1,0,0,0,0,1.84,3.5,3.5,0,0,0,3.18,0l54.27-31.33a5.72,5.72,0,0,1,5.22,0l11,6.35c1.44.84,1.44,2.19,0,3L394.56,157a1,1,0,0,0,0,1.84A3.5,3.5,0,0,0,397.74,158.83Z" transform="translate(-125.02 -53.76)"/><polygon class="cls-7" points="286.86 141.19 315.06 124.91 315.06 96.64 286.86 112.92 286.86 141.19"/><path class="cls-7" d="M375.15,147.62a3.5,3.5,0,0,0,3.18,0l54.27-31.33a5.72,5.72,0,0,1,5.22,0l11,6.35c.95.55,1.27,1.32,1,2a2.27,2.27,0,0,0-1-1l-11-6.36a5.78,5.78,0,0,0-5.22,0l-54.27,31.33a3.5,3.5,0,0,1-3.18,0c-.67-.38-.83-.94-.48-1.42A1.43,1.43,0,0,0,375.15,147.62Z" transform="translate(-125.02 -53.76)"/><path class="cls-7" d="M394.56,158.83a3.5,3.5,0,0,0,3.18,0L452,127.49a4.36,4.36,0,0,0,2.35-2.84c.25,1.38-.53,2.8-2.35,3.85l-54.27,31.33a3.5,3.5,0,0,1-3.18,0c-.66-.38-.82-.94-.48-1.42A1.54,1.54,0,0,0,394.56,158.83Z" transform="translate(-125.02 -53.76)"/><path class="cls-6" d="M477.65,212.9c3.19,1.84,3.19,4.84,0,6.68l-54.27,31.34a3.56,3.56,0,0,1-3.18,0,1,1,0,0,1,0-1.84l54.27-31.33c1.44-.83,1.44-2.19,0-3l-5.26-3c.59-.88,1.12-1.8,1.64-2.73Z" transform="translate(-125.02 -53.76)"/><path class="cls-8" d="M400.79,237.87l54.27-31.33a12.84,12.84,0,0,1,11.58,0l4.21,2.43c-.52.93-1.05,1.85-1.64,2.73l-5.75-3.32a5.72,5.72,0,0,0-5.22,0L404,239.71a3.5,3.5,0,0,1-3.18,0A1,1,0,0,1,400.79,237.87Z" transform="translate(-125.02 -53.76)"/><polygon class="cls-8" points="275.11 185.1 275.1 108.78 331.98 77.08 339.93 76.55 347.62 81.53 352.34 85.64 296.93 173.51 278.84 184.18 275.11 185.1"/><polygon class="cls-12" points="296.14 194.73 279.14 184.92 279.14 111.17 296.67 119.31 296.14 194.73"/><polygon class="cls-6" points="355.02 86.23 355.02 162.42 295.32 196.57 294.52 196.25 294.52 119.95 355.02 86.23"/><path class="cls-7" d="M446.47,140.62l11.86-6.81a5.81,5.81,0,0,1,4.91.14l11,6.36a1.67,1.67,0,0,1,1,1.81l-30,17.92-24.08,14.78-17.06-9.89Z" transform="translate(-125.02 -53.76)"/><path class="cls-8" d="M421.69,172.52v78.77a3.16,3.16,0,0,1-1.49-.37,1.11,1.11,0,0,1-.65-.9h0V173.71Z" transform="translate(-125.02 -53.76)"/><polygon class="cls-7" points="275.1 109.73 275.1 108.78 275.41 108.78 275.5 109.43 275.1 109.73"/><polygon class="cls-7" points="294.52 120.94 294.52 119.97 294.81 120.38 294.52 120.94"/><path class="cls-6" d="M423.38,174.62l54.27-31.34c3.19-1.84,3.19-4.84,0-6.68l-11-6.36a12.77,12.77,0,0,0-11.58,0l-54.27,31.33a1,1,0,0,0,0,1.84,3.56,3.56,0,0,0,3.18,0l54.27-31.34a5.78,5.78,0,0,1,5.22,0l11,6.36c1.44.83,1.44,2.19,0,3L420.2,172.78a1,1,0,0,0,0,1.84A3.56,3.56,0,0,0,423.38,174.62Z" transform="translate(-125.02 -53.76)"/><polygon class="cls-7" points="312.5 156.98 340.7 140.69 340.7 112.42 312.5 128.71 312.5 156.98"/><path class="cls-7" d="M400.79,163.41a3.56,3.56,0,0,0,3.18,0l54.27-31.34a5.78,5.78,0,0,1,5.22,0l11,6.36c.95.55,1.27,1.31,1,2a2.18,2.18,0,0,0-1-1l-11-6.36a5.78,5.78,0,0,0-5.22,0L404,164.41a3.5,3.5,0,0,1-3.18,0c-.67-.38-.83-.95-.48-1.42A1.56,1.56,0,0,0,400.79,163.41Z" transform="translate(-125.02 -53.76)"/><path class="cls-7" d="M420.2,174.62a3.56,3.56,0,0,0,3.18,0l54.27-31.34a4.36,4.36,0,0,0,2.35-2.84c.25,1.37-.53,2.8-2.35,3.85l-54.27,31.33a3.5,3.5,0,0,1-3.18,0c-.66-.38-.82-1-.48-1.42A1.68,1.68,0,0,0,420.2,174.62Z" transform="translate(-125.02 -53.76)"/></g><path class="cls-2" d="M500.82,335.43a8.58,8.58,0,0,0-7.77,0L392.81,393.32c-2.15,1.24-2.15,3.25,0,4.49a8.58,8.58,0,0,0,7.77,0l100.24-57.9C503,338.67,503,336.66,500.82,335.43Z" transform="translate(-125.02 -53.76)"/><path class="cls-6" d="M518,304.06h0a.43.43,0,0,0-.47-.2l-6.06,1.31,2.39,4.06,4.09-4.65A.44.44,0,0,0,518,304.06Z" transform="translate(-125.02 -53.76)"/><path class="cls-8" d="M515.56,307.06a3.06,3.06,0,0,0-1.39-2.37,1,1,0,0,0-.91-.11,38.8,38.8,0,0,0-19.94,5.34l-.44.26L500.42,323l2.22-1.47a38.77,38.77,0,0,0,11.62-12.06l1-1.55A1,1,0,0,0,515.56,307.06Z" transform="translate(-125.02 -53.76)"/><path class="cls-6" d="M501.93,319.58a11.61,11.61,0,0,0-5.33-9.06c-2.91-1.66-5.25-.28-5.23,3.07a11.61,11.61,0,0,0,5.33,9.06C499.61,324.3,502,322.93,501.93,319.58Z" transform="translate(-125.02 -53.76)"/><polygon class="cls-6" points="330.69 297.08 375.39 269.23 367.86 256.42 321.79 281.94 330.69 297.08"/><path class="cls-6" d="M457.5,346.81a13.73,13.73,0,0,0-6.29-10.71c-3.44-2-6.21-.33-6.18,3.63a13.73,13.73,0,0,0,6.29,10.71C454.77,352.39,457.53,350.77,457.5,346.81Z" transform="translate(-125.02 -53.76)"/><path class="cls-6" d="M455,348.3a13.73,13.73,0,0,0-6.29-10.7c-3.44-2-6.21-.33-6.18,3.63a13.75,13.75,0,0,0,6.29,10.71C452.22,353.89,455,352.26,455,348.3Z" transform="translate(-125.02 -53.76)"/><rect class="cls-6" x="384.85" y="353.37" width="68.6" height="17.56" transform="translate(-250.74 208.58) rotate(-30.45)"/><path class="cls-6" d="M395.81,383.07a13.71,13.71,0,0,0-6.29-10.71c-3.44-1.95-6.21-.33-6.18,3.63a13.73,13.73,0,0,0,6.29,10.71C393.08,388.65,395.85,387,395.81,383.07Z" transform="translate(-125.02 -53.76)"/><path class="cls-4" d="M393.58,381.8a9,9,0,0,0-4.25-6.5c-2.21-1.26-3.89-.38-3.76,2a9.07,9.07,0,0,0,4.25,6.5C392,385,393.72,384.14,393.58,381.8Z" transform="translate(-125.02 -53.76)"/><path class="cls-7" d="M458,346.54a13.72,13.72,0,0,0-6.29-10.7,4.81,4.81,0,0,0-3.69-.69c1.12-1.17,2.95-1.31,5-.13a13.75,13.75,0,0,1,6.29,10.71c0,2.36-1,3.89-2.49,4.32A4.9,4.9,0,0,0,458,346.54Z" transform="translate(-125.02 -53.76)"/><path class="cls-8" d="M458,346.54a13.72,13.72,0,0,0-6.29-10.7c-1.72-1-3.28-1.06-4.4-.4l-3.35,2,1.6,2.72a14,14,0,0,0,5.71,9.71l1.59,2.71,3.35-2h0C457.28,349.92,458,348.52,458,346.54Z" transform="translate(-125.02 -53.76)"/><path class="cls-6" d="M454.6,348.51a13.72,13.72,0,0,0-6.29-10.7c-3.45-2-6.21-.33-6.18,3.63a13.72,13.72,0,0,0,6.29,10.7C451.86,354.1,454.63,352.47,454.6,348.51Z" transform="translate(-125.02 -53.76)"/><path class="cls-9" d="M390.8,383.56,387,377l-12.54,7.36a3.8,3.8,0,0,0-1.34,5.19h0a3.79,3.79,0,0,0,5.18,1.35Z" transform="translate(-125.02 -53.76)"/><path class="cls-9" d="M391.57,381.82a5.9,5.9,0,0,0-2.72-4.62c-1.48-.84-2.68-.14-2.66,1.57a5.92,5.92,0,0,0,2.71,4.61C390.39,384.23,391.58,383.53,391.57,381.82Z" transform="translate(-125.02 -53.76)"/><path class="cls-8" d="M405.5,358.76l-1.88-1.07a4,4,0,0,0-4,.43l-6.44,3.79a4.85,4.85,0,0,0-2.18,3.85l0,3.23a2.66,2.66,0,0,1-.65,1.62l.24,1.49-1.6-.92h0a.83.83,0,0,1-.38-.79l0-3.22a10.23,10.23,0,0,1,4.56-8l6.44-3.78c2.15-1.27,4.18-1.48,5.72-.61l1.88,1.06a4,4,0,0,0,4-.43l26-15.26A.83.83,0,0,1,438,340h0l1.6.92-1.37.53a2.67,2.67,0,0,1-1.06,1.42l-26,15.26C409.07,359.41,407,359.63,405.5,358.76Z" transform="translate(-125.02 -53.76)"/><path class="cls-8" d="M405.25,358.62a4,4,0,0,0-4,.43l-6.44,3.79a4.89,4.89,0,0,0-2.19,3.85l0,3.23a2.69,2.69,0,0,1-1.19,2.09c-.66.39-1.2.08-1.21-.69l0-3.22a10.23,10.23,0,0,1,4.56-8l6.44-3.78c2.15-1.27,4.18-1.48,5.72-.61l1.87,1.06a4,4,0,0,0,4-.43l26-15.26c.66-.39,1.2-.08,1.21.69a2.69,2.69,0,0,1-1.19,2.09l-26,15.26c-2.16,1.26-4.19,1.48-5.72.61Z" transform="translate(-125.02 -53.76)"/><path class="cls-7" d="M392.52,367.23l0,3.22s0,0,0,.07a2.18,2.18,0,0,0,.09-.6l0-3.23c0-.09,0-.18,0-.28A3.91,3.91,0,0,0,392.52,367.23Z" transform="translate(-125.02 -53.76)"/><ellipse class="cls-2" cx="245" cy="250.18" rx="20.39" ry="11.77"/><path class="cls-9" d="M393.21,293.87v-6.51H392a14.75,14.75,0,0,0-5.56-5.2c-9.06-5.23-23.74-5.23-32.8,0a14.75,14.75,0,0,0-5.56,5.2h-1.23v6.48h0c0,3.44,2.25,6.88,6.79,9.5,9.06,5.23,23.74,5.23,32.8,0C391,300.73,393.21,297.3,393.21,293.87Z" transform="translate(-125.02 -53.76)"/><ellipse class="cls-9" cx="245" cy="233.6" rx="23.19" ry="13.39"/><path class="cls-7" d="M386.42,296.83c-9.06,5.23-23.74,5.23-32.8,0-4.34-2.51-6.58-5.76-6.76-9-.19,3.56,2,7.17,6.76,9.89,9.06,5.23,23.74,5.23,32.8,0,4.72-2.72,6.95-6.33,6.76-9.89C393,291.07,390.76,294.32,386.42,296.83Z" transform="translate(-125.02 -53.76)"/><path class="cls-7" d="M358.84,291.79a1,1,0,0,1-.61-.85l0-8.73c0-.66.94-1.2,2.1-1.2s2.08.54,2.08,1.21l0,7.23,21-2.57c1.13-.14,2.24.28,2.48.93s-.48,1.29-1.61,1.43l-23.52,2.88a3.26,3.26,0,0,1-1.75-.24Z" transform="translate(-125.02 -53.76)"/><polygon class="cls-2" points="125.13 165.99 107.9 156.04 125.13 146.09 142.36 156.04 125.13 165.99"/><polygon class="cls-13" points="142.36 143.41 125.13 153.36 125.13 133.46 142.36 123.52 142.36 143.41"/><polygon class="cls-9" points="125.13 133.46 107.9 123.52 125.13 113.57 142.36 123.52 125.13 133.46"/><polygon class="cls-9" points="125.13 153.36 107.9 143.41 107.9 123.52 125.13 133.46 125.13 153.36"/><polygon class="cls-7" points="118.93 142.61 114.11 139.83 114.11 134.26 118.93 137.04 118.93 142.61"/><polygon class="cls-2" points="17.94 344.36 0 334 17.94 323.65 35.88 334 17.94 344.36"/><polygon class="cls-3" points="35.88 320.86 17.94 331.21 17.94 310.5 35.88 300.14 35.88 320.86"/><polygon class="cls-6" points="17.94 310.5 0 300.14 17.94 289.79 35.88 300.14 17.94 310.5"/><polygon class="cls-8" points="17.94 331.21 0 320.86 0 300.14 17.94 310.5 17.94 331.21"/><polygon class="cls-7" points="11.48 320.02 6.46 317.13 6.46 311.33 11.48 314.23 11.48 320.02"/><path class="cls-2" d="M208.21,374l-66.85-38.59a2.25,2.25,0,0,1,0-3.9l63.56-36.7L276,335.82a2.25,2.25,0,0,1,0,3.9L216.74,374A8.5,8.5,0,0,1,208.21,374Z" transform="translate(-125.02 -53.76)"/><path class="cls-13" d="M206.28,268c0-4.24-3-6-6.67-3.85l-62.52,36a4,4,0,0,0-1.83,3.17c0,1.16.82,1.64,1.83,1.06l62.52-36c1.66-.95,3-.17,3,1.74v7c1.21-.07,2.43-.07,3.66-.05Z" transform="translate(-125.02 -53.76)"/><path class="cls-13" d="M137.07,317l62.52-22.78a14.78,14.78,0,0,0,6.68-11.55v-5.59c-1.23,0-2.45,0-3.66.05v7.65a6.65,6.65,0,0,1-3,5.21l-62.52,22.78a4,4,0,0,0-1.83,3.17C135.24,317.08,136.06,317.55,137.07,317Z" transform="translate(-125.02 -53.76)"/><polygon class="cls-13" points="10.69 263.29 86.74 307.3 151.13 268.9 156.24 261.27 155.71 263.98 154.34 256.9 34.81 261.46 13.75 260.11 10.69 263.29"/><polygon class="cls-14" points="13.21 250.01 13.19 259.37 86.69 301.9 88.68 292.98 13.21 250.01"/><polygon class="cls-9" points="155.29 253.89 79.36 209.96 10.9 249.78 10.76 250.75 86.8 294.75 155.29 253.89"/><path class="cls-7" d="M256.11,330.21,274,319.62a6.67,6.67,0,0,0,2.69-5v-1.4a2,2,0,0,0-1.2-2.08l-35.15,19.55-28.62,15.48,0,9.47Z" transform="translate(-125.02 -53.76)"/><path class="cls-13" d="M214.26,347.06l-75.45-43.65-1.6-.93-1.46-.84a3.64,3.64,0,0,0-.49,1.7,1.3,1.3,0,0,0,.52,1.17h0l76,44Z" transform="translate(-125.02 -53.76)"/><polygon class="cls-7" points="85.79 306.75 86.74 307.3 86.92 307 86.33 306.53 85.79 306.75"/><polygon class="cls-7" points="85.82 294.18 86.79 294.74 86.55 294.21 85.82 294.18"/><path class="cls-9" d="M213.14,344.16l62.52-36c3.68-2.12,6.67-.39,6.66,3.86v1.4a14.75,14.75,0,0,1-6.68,11.54l-62.52,36c-1,.59-1.83.11-1.83-1a4,4,0,0,1,1.84-3.17l62.52-36a6.7,6.7,0,0,0,3-5.21v-1.4c0-1.92-1.35-2.7-3-1.74l-62.52,36c-1,.58-1.83.11-1.82-1.06A4.07,4.07,0,0,1,213.14,344.16Z" transform="translate(-125.02 -53.76)"/><path class="cls-7" d="M211.28,359.91a4,4,0,0,1,1.84-3.17l62.52-36a6.7,6.7,0,0,0,3-5.21v-1.4c0-1.26-.58-2-1.44-2.13a2.53,2.53,0,0,1,.44,1.55v1.4a6.69,6.69,0,0,1-3,5.21l-62.52,36a4,4,0,0,0-1.83,3.17c0,.88.47,1.36,1.14,1.29A1.66,1.66,0,0,1,211.28,359.91Z" transform="translate(-125.02 -53.76)"/><path class="cls-7" d="M211.31,347.33a4.07,4.07,0,0,1,1.83-3.17l62.52-36a5,5,0,0,1,4.18-.7c-1.22-1-3.09-1.08-5.18.12l-62.52,36a4.08,4.08,0,0,0-1.84,3.17c0,.89.47,1.37,1.14,1.3A1.72,1.72,0,0,1,211.31,347.33Z" transform="translate(-125.02 -53.76)"/><polygon class="cls-7" points="57.37 254.76 91.86 234.88 121.78 252.19 87.28 272.07 57.37 254.76"/><path class="cls-2" d="M267.7,404.65c13.81,8,36.2,8,50,0s13.81-20.9,0-28.87-36.2-8-50,0S253.89,396.67,267.7,404.65Zm13.51-21.08c6.35-3.66,16.64-3.66,23,0s6.34,9.61,0,13.27-16.64,3.67-23,0S274.86,387.24,281.21,383.57Z" transform="translate(-125.02 -53.76)"/><path class="cls-13" d="M322.92,371.05l-12.61.19a13.54,13.54,0,0,0-4-3.35c-6.94-4-17.85-4.31-25.41-.93l-7.49-7-11.54.18c.57-.37,1.15-.74,1.77-1.1,16-9.26,42-9.26,58.08,0a30.37,30.37,0,0,1,7.22,5.63Z" transform="translate(-125.02 -53.76)"/><polygon class="cls-13" points="136.86 288.01 136.86 306.33 148.4 306.15 148.4 287.83 136.86 288.01"/><polygon class="cls-13" points="155.9 294.88 155.9 313.2 148.4 306.15 148.4 287.83 155.9 294.88"/><path class="cls-13" d="M310.31,352.93v18.31l-16.59-13.52L280.92,367V348.64l11.78-5.71s16.22,5,17.06,5.17S310.31,352.93,310.31,352.93Z" transform="translate(-125.02 -53.76)"/><polygon class="cls-13" points="197.9 298.97 197.9 317.29 185.28 317.48 185.28 299.17 197.9 298.97"/><polygon class="cls-13" points="203.94 292.54 203.94 310.85 197.9 317.29 197.9 298.97 203.94 292.54"/><path class="cls-9" d="M322.92,352.73l-12.61.2a13.25,13.25,0,0,0-4-3.35c-6.94-4-17.85-4.32-25.41-.94l-7.49-7.05-11.54.18c.57-.37,1.15-.74,1.77-1.1,16-9.26,42-9.26,58.08,0A30.63,30.63,0,0,1,329,346.3Z" transform="translate(-125.02 -53.76)"/><path class="cls-8" d="M277.12,350.9v16.83l-10.91-2.61s.64-9.85.87-10.12S277.12,350.9,277.12,350.9Z" transform="translate(-125.02 -53.76)"/><path class="cls-3" d="M285.39,367.73v18.32l-1.18,1.26-7.7-4.44s1.19-14,1.33-14.26S285.39,367.73,285.39,367.73Z" transform="translate(-125.02 -53.76)"/><path class="cls-4" d="M270.52,363l6.6,6.2c-5.49,4.35-4.84,10.49,2,14.42a23.44,23.44,0,0,0,6.31,2.42l-6.83,7.27,6.05,5.69a55.06,55.06,0,0,1-20.95-6.48c-13.79-8-15.71-20.17-5.79-29.33Z" transform="translate(-125.02 -53.76)"/><polygon class="cls-4" points="159.59 326.93 159.59 345.25 144.62 339.47 126.61 322.29 126.68 302.84 145.73 317.94 159.59 326.93"/><path class="cls-6" d="M270.52,344.69l6.6,6.21c-5.49,4.35-4.84,10.48,2,14.41a23.44,23.44,0,0,0,6.31,2.42L278.56,375l6.05,5.69a54.89,54.89,0,0,1-20.95-6.48c-13.79-8-15.71-20.17-5.79-29.33Z" transform="translate(-125.02 -53.76)"/><path class="cls-4" d="M284.66,393.23l6-6.41c5.59.34,11.38-.72,15.66-3.19s6.23-6,5.46-9.36l14.32-.22,5.51-5.87c4.82,8.27,1.53,17.76-9.88,24.35-8.38,4.84-19.48,7.14-30.46,6.92Z" transform="translate(-125.02 -53.76)"/><polygon class="cls-4" points="166.25 327.37 166.25 345.69 208.74 322.15 208.74 303.82 202.54 306.33 166.25 327.37"/><polygon class="cls-3" points="159.63 321.15 159.63 339.47 166.25 345.69 166.25 327.37 159.63 321.15"/><path class="cls-8" d="M284.66,374.91l6-6.41c5.59.34,11.38-.72,15.66-3.19s6.23-6,5.46-9.36l14.32-.22,5.51-5.87c4.82,8.27,1.53,17.76-9.88,24.35-8.38,4.84-19.48,7.14-30.46,6.93Z" transform="translate(-125.02 -53.76)"/></svg>