<svg id="Layer_1" data-name="Layer 1" xmlns="http://www.w3.org/2000/svg" viewBox="0 0 440.46 439.55"><defs><style>.cls-1,.cls-2{fill:#fff;}.cls-1{stroke:#231f20;stroke-miterlimit:10;}</style></defs><path class="cls-1" d="M672.43,232.39" transform="translate(-237.28 -60.48)"/><path class="cls-1" d="M264.9,173.85" transform="translate(-237.28 -60.48)"/><path class="cls-2" d="M480.26,499c6.83-117.7,16.14-117.32,68.89-149.49,73.63-44.91,101.61-54,123.48-116.18l-.2-.91a221,221,0,0,1,5.31,48.32c0,114.38-87.19,208.39-198.73,219.2" transform="translate(-237.28 -60.48)"/><path class="cls-2" d="M436,499c-6.37-82.8,5.24-99.8-39.77-131.31-36.81-25.76-92-47.18-127.16-88.35-14.72-17.23-22.35-39.73-25.56-50.7l.17-.69a220.8,220.8,0,0,0-6.37,52.79c0,114.84,87.9,209.15,200.08,219.33" transform="translate(-237.28 -60.48)"/><path class="cls-2" d="M265.22,172.6c39.43,202.13,340.1,212.78,385,.59l.15,1.1a220.31,220.31,0,0,0-385.47-.44" transform="translate(-237.28 -60.48)"/></svg>